<svg width="35" height="35" viewBox="0 0 35 35" fill="none" xmlns="http://www.w3.org/2000/svg">
<path d="M17.4284 26.25C17.9388 26.25 18.3705 26.0735 18.7234 25.7206C19.0763 25.3677 19.2523 24.9365 19.2513 24.4271C19.2503 23.9176 19.0744 23.486 18.7234 23.1321C18.3724 22.7782 17.9407 22.6022 17.4284 22.6042C16.916 22.6061 16.4848 22.7826 16.1348 23.1335C15.7848 23.4845 15.6084 23.9157 15.6055 24.4271C15.6026 24.9385 15.779 25.3701 16.1348 25.7221C16.4907 26.074 16.9219 26.25 17.4284 26.25ZM17.5013 32.0833C15.4839 32.0833 13.5881 31.7003 11.8138 30.9342C10.0395 30.168 8.4961 29.1292 7.1836 27.8177C5.8711 26.5062 4.83228 24.9628 4.06714 23.1875C3.302 21.4122 2.91894 19.5164 2.91797 17.5C2.917 15.4836 3.30005 13.5878 4.06714 11.8125C4.83422 10.0372 5.87304 8.49381 7.1836 7.18228C8.49415 5.87075 10.0376 4.83193 11.8138 4.06582C13.5901 3.29971 15.4859 2.91666 17.5013 2.91666C19.5167 2.91666 21.4126 3.29971 23.1888 4.06582C24.9651 4.83193 26.5085 5.87075 27.819 7.18228C29.1296 8.49381 30.1689 10.0372 30.9369 11.8125C31.705 13.5878 32.0876 15.4836 32.0846 17.5C32.0817 19.5164 31.6987 21.4122 30.9355 23.1875C30.1723 24.9628 29.1335 26.5062 27.819 27.8177C26.5046 29.1292 24.9612 30.1685 23.1888 30.9356C21.4164 31.7027 19.5206 32.0853 17.5013 32.0833ZM17.5013 29.1667C20.7582 29.1667 23.5169 28.0364 25.7773 25.776C28.0378 23.5156 29.168 20.7569 29.168 17.5C29.168 14.243 28.0378 11.4844 25.7773 9.22395C23.5169 6.96353 20.7582 5.83332 17.5013 5.83332C14.2444 5.83332 11.4857 6.96353 9.22526 9.22395C6.96485 11.4844 5.83464 14.243 5.83464 17.5C5.83464 20.7569 6.96485 23.5156 9.22526 25.776C11.4857 28.0364 14.2444 29.1667 17.5013 29.1667ZM17.6471 11.2292C18.2548 11.2292 18.7837 11.4236 19.2338 11.8125C19.6839 12.2014 19.9085 12.6875 19.9076 13.2708C19.9076 13.8055 19.7437 14.2795 19.4161 14.6927C19.0885 15.1059 18.7176 15.4948 18.3034 15.8594C17.7444 16.3455 17.2524 16.8802 16.8276 17.4635C16.4027 18.0469 16.1898 18.7031 16.1888 19.4323C16.1888 19.7726 16.3167 20.0584 16.5723 20.2898C16.828 20.5212 17.1255 20.6364 17.4648 20.6354C17.8294 20.6354 18.1396 20.5139 18.3953 20.2708C18.651 20.0278 18.8148 19.7239 18.8867 19.3594C18.9839 18.8489 19.2027 18.3935 19.543 17.9929C19.8832 17.5924 20.2478 17.2093 20.6367 16.8437C21.1957 16.309 21.676 15.7257 22.0776 15.0937C22.4791 14.4618 22.6794 13.7569 22.6784 12.9792C22.6784 11.7396 22.1743 10.7251 21.1661 9.93562C20.1579 9.14617 18.9849 8.75096 17.6471 8.74999C16.7235 8.74999 15.8427 8.94443 15.0046 9.33332C14.1666 9.72221 13.5283 10.3177 13.0898 11.1198C12.9197 11.4114 12.8653 11.7216 12.9265 12.0502C12.9878 12.3788 13.1516 12.6277 13.418 12.7969C13.7582 12.9913 14.1107 13.0521 14.4753 12.9792C14.8398 12.9062 15.1437 12.6996 15.3867 12.3594C15.6541 11.9948 15.9885 11.7153 16.3901 11.5208C16.7916 11.3264 17.2106 11.2292 17.6471 11.2292Z" fill="#004777"/>
</svg>
